HIERARCHY
ROOT Hips
{
    OFFSET 0.000000 0.000000 0.000000
    CHANNELS 6 Xposition Yposition Zposition Zrotation Xrotation Yrotation
    JOINT Spine
    {
        OFFSET -0.000000 7.246840 0.000000
        CHANNELS 3 Zrotation Xrotation Yrotation
        JOINT Spine1
        {
            OFFSET -0.000000 20.289354 0.000000
            CHANNELS 3 Zrotation Xrotation Yrotation
            JOINT Neck
            {
                OFFSET -0.000000 20.206032 1.836912
                CHANNELS 3 Zrotation Xrotation Yrotation
                JOINT Head
                {
                    OFFSET -0.000000 12.372654 -1.767522
                    CHANNELS 3 Zrotation Xrotation Yrotation
                    End Site
                    {
                        OFFSET -0.000000 22.094025 0.000000
                    }
                }
            }
            JOINT LeftShoulder
            {
                OFFSET 3.465871 17.201674 -0.568930
                CHANNELS 3 Zrotation Xrotation Yrotation
                JOINT LeftArm
                {
                    OFFSET 14.070313 0.000000 0.000000
                    CHANNELS 3 Zrotation Xrotation Yrotation
                    JOINT LeftForeArm
                    {
                        OFFSET 26.549477 0.000000 0.000000
                        CHANNELS 3 Zrotation Xrotation Yrotation
                        JOINT LeftHand
                        {
                            OFFSET 18.880413 0.000000 0.000000
                            CHANNELS 3 Zrotation Xrotation Yrotation
                            End Site
                            {
                                OFFSET 13.256415 0.000000 0.000000
                            }
                        }
                    }
                }
            }
            JOINT RightShoulder
            {
                OFFSET -3.526370 17.201674 -0.568930
                CHANNELS 3 Zrotation Xrotation Yrotation
                JOINT RightArm
                {
                    OFFSET -14.070313 0.000000 0.000000
                    CHANNELS 3 Zrotation Xrotation Yrotation
                    JOINT RightForeArm
                    {
                        OFFSET -26.549477 0.000000 0.000000
                        CHANNELS 3 Zrotation Xrotation Yrotation
                        JOINT RightHand
                        {
                            OFFSET -18.880413 0.000000 0.000000
                            CHANNELS 3 Zrotation Xrotation Yrotation
                            End Site
                            {
                                OFFSET -13.256415 0.000000 0.000000
                            }
                        }
                    }
                }
            }
        }
    }
    JOINT LeftUpLeg
    {
        OFFSET 8.837609 0.000000 0.000000
        CHANNELS 3 Zrotation Xrotation Yrotation
        JOINT LeftLeg
        {
            OFFSET -0.000000 -41.345005 0.000000
            CHANNELS 3 Zrotation Xrotation Yrotation
            JOINT LeftFoot
            {
                OFFSET -0.000000 -35.500874 0.000000
                CHANNELS 3 Zrotation Xrotation Yrotation
                JOINT LeftToeBase
                {
                    OFFSET -0.000000 -5.744446 13.256415
                    CHANNELS 3 Zrotation Xrotation Yrotation
                    End Site
                    {
                        OFFSET -0.000000 0.000000 3.535044
                    }
                }
            }
        }
    }
    JOINT RightUpLeg
    {
        OFFSET -8.837609 0.000000 0.000000
        CHANNELS 3 Zrotation Xrotation Yrotation
        JOINT RightLeg
        {
            OFFSET -0.000000 -41.345005 0.000000
            CHANNELS 3 Zrotation Xrotation Yrotation
            JOINT RightFoot
            {
                OFFSET -0.000000 -35.500874 0.000000
                CHANNELS 3 Zrotation Xrotation Yrotation
                JOINT RightToeBase
                {
                    OFFSET -0.000000 -5.744446 13.256415
                    CHANNELS 3 Zrotation Xrotation Yrotation
                    End Site
                    {
                        OFFSET -0.000000 0.000000 3.535044
                    }
                }
            }
        }
    }
}
MOTION
Frames:    7
Frame Time:    0.010000
1.060607    82.386604    -10.459141    3.739939    5.701324    -2.121955    0.463412    -9.585638    4.113505    -0.342610    2.232261    4.081328    1.689265    20.368944    -17.085825    0.032577    -8.141517    -17.693424    12.347355    5.365842    7.141346    8.600112    87.129280    -64.242210    13.652880    0.793587    -79.625862    32.052048    -0.329856    -41.726997    -8.454683    -9.625142    18.452768    44.304142    -18.472767    45.484398    5.311223    -42.431862    91.907684    3.944840    -45.450020    36.542362    -3.219993    5.027777    1.232556    -1.957344    -10.612548    -5.288231    2.362561    2.241113    -3.167085    -0.877889    -2.854173    1.250709    -7.125745    4.071083    -1.931494    8.255866    -11.497889    1.498930    2.456377    0.472837    -2.092557    -1.748658    -0.112510    3.139178    
1.053533    82.389717    -10.489513    3.763034    5.685028    -2.051109    0.493146    -9.516287    4.137106    -0.341001    2.232588    4.102715    1.815783    20.439035    -16.972879    -0.376011    -8.116767    -17.653858    12.354048    5.346173    7.104535    8.097435    87.173401    -63.772694    13.749855    0.760353    -79.554245    32.097260    -0.306991    -41.706226    -8.462033    -9.634930    18.447567    44.327969    -18.463305    45.559643    5.359165    -42.292751    92.997581    4.041687    -45.412659    36.275135    -3.225753    5.016174    1.175291    -1.973968    -10.607538    -5.294235    2.371699    2.253955    -3.174868    -0.877862    -2.832713    1.250501    -7.141948    4.088416    -1.973998    8.259331    -11.508265    1.488302    2.444471    0.456936    -2.101600    -1.736119    -0.108700    3.116546    
1.045126    82.391266    -10.527910    3.783471    5.677351    -1.982827    0.539072    -9.450054    4.165669    -0.360368    2.261496    4.128223    1.852393    20.495499    -16.836306    -0.614172    -8.065479    -17.558260    12.377694    5.296213    7.055342    5.754176    87.186722    -61.475082    13.828525    0.801610    -79.479980    32.152466    -0.248556    -41.740688    -8.466736    -9.668160    18.429714    44.277908    -18.345123    45.596313    5.164666    -42.185532    94.183922    3.958069    -45.275791    35.903088    -3.237620    4.989600    1.149539    -1.963553    -10.611787    -5.361696    2.372840    2.289686    -3.141600    -0.876358    -2.810078    1.248181    -7.147760    4.089948    -2.038056    8.249866    -11.521010    1.480960    2.448448    0.456719    -2.106874    -1.753086    -0.089565    3.146345    
1.047735    82.396599    -10.572855    3.822550    5.701733    -1.937614    0.583244    -9.390584    4.192165    -0.368119    2.269974    4.151558    1.927386    20.521631    -16.681969    -0.989521    -7.984945    -17.470881    12.364426    5.280685    7.053771    4.368021    87.176376    -60.106491    13.906784    0.823691    -79.407120    32.184387    -0.209478    -41.804073    -8.488749    -9.692169    18.423840    44.213020    -18.154560    45.649933    5.069272    -42.090717    95.682152    3.903750    -45.236431    35.584560    -3.283006    4.934043    1.108505    -1.947492    -10.615264    -5.342670    2.330929    2.311036    -3.173420    -0.888887    -2.804385    1.265979    -7.184902    4.043704    -2.091820    8.252297    -11.519055    1.466257    2.453308    0.462836    -2.092051    -1.737650    -0.061536    3.117706    
1.043918    82.397377    -10.617040    3.847276    5.703677    -1.880257    0.632752    -9.308529    4.212171    -0.363717    2.296060    4.167945    1.987951    20.608948    -16.527328    -1.333775    -8.015242    -17.376957    12.326550    5.251600    7.062979    3.709073    87.143639    -59.450588    13.944859    0.887941    -79.336830    32.264774    -0.178696    -41.856369    -8.510637    -9.680390    18.423410    44.166523    -18.021425    45.746319    5.155153    -41.949390    97.510300    3.977134    -45.290104    35.363087    -3.311218    4.906742    1.078489    -1.926165    -10.638480    -5.338172    2.285667    2.346172    -3.177290    -0.848687    -2.844066    1.209032    -7.199927    4.028746    -2.152958    8.252742    -11.528097    1.475621    2.450049    0.474336    -2.104498    -1.754711    -0.068487    3.148541    
1.042426    82.397064    -10.667052    3.874311    5.718227    -1.821470    0.696132    -9.235348    4.240708    -0.363589    2.326946    4.191867    1.912723    20.631378    -16.221748    -1.570511    -7.871511    -17.109249    12.275836    5.224336    7.041705    4.438370    87.122742    -60.167370    13.974293    0.913472    -79.236610    32.391747    -0.239439    -41.966377    -8.528059    -9.674224    18.467178    44.193741    -17.986994    45.822109    5.419365    -41.580177    99.721428    3.991975    -45.330490    35.165188    -3.336266    4.858278    1.052888    -1.918804    -10.651008    -5.379585    2.296265    2.384247    -3.162145    -0.854213    -2.820749    1.216723    -7.216277    4.001785    -2.181979    8.235411    -11.551166    1.446115    2.456479    0.489413    -2.112559    -1.750784    -0.047825    3.140797    
1.042143    82.397552    -10.720423    3.899379    5.739347    -1.761038    0.777926    -9.154161    4.273309    -0.406854    2.358855    4.219418    2.159798    20.604326    -16.226944    -2.139374    -7.778281    -17.219288    12.296194    5.226052    7.050694    6.878627    87.083954    -62.659317    14.014706    0.901579    -79.104248    32.513321    -0.322842    -42.045929    -8.521441    -9.688799    18.502178    44.260941    -17.963680    45.875763    5.640945    -41.089657    102.167908    3.899693    -45.293556    34.936790    -3.361924    4.801851    1.003522    -1.911072    -10.663991    -5.383484    2.293420    2.417511    -3.164420    -0.847878    -2.796411    1.207515    -7.231721    3.967084    -2.246565    8.237292    -11.575552    1.448691    2.435108    0.512257    -2.115029    -1.742852    -0.035860    3.126171    
